<svg xmlns="http://www.w3.org/2000/svg" width="128" height="128" style="background:#fff" viewBox="0 0 128 128">
  <path fill="#3B5897" fill-rule="evenodd" d="M81.1917209,70.2703721 L72.7782791,70.2703721 L72.7782791,54.0326512 C72.7782791,52.0605581 72.820186,50.256093 72.9064651,48.6217209 C72.3887907,49.2503256 71.7429302,49.9060465 70.973814,50.593814 L67.4906047,53.4681395 L63.1889767,48.178 L73.7224186,39.5993953 L81.1917209,39.5993953 L81.1917209,70.2703721 Z M60.9950233,57.9349302 L53.188,57.9349302 L53.188,65.5077674 L47.5453488,65.5077674 L47.5453488,57.9349302 L39.7432558,57.9349302 L39.7432558,52.312 L47.5453488,52.312 L47.5453488,44.6134419 L53.188,44.6134419 L53.188,52.312 L60.9950233,52.312 L60.9950233,57.9349302 Z M107.282512,15 L20.7174884,15 C15.3583256,15 11,19.3607907 11,24.7174884 L11,83.0174884 C11,88.374186 15.3583256,92.7325116 20.7174884,92.7325116 L60.4206512,92.7325116 L84.4925116,111.99 C85.1654884,112.527395 85.9740465,112.803488 86.7924651,112.803488 C87.3397209,112.803488 87.8894419,112.680233 88.4046512,112.431256 C89.6963721,111.810047 90.5,110.530651 90.5,109.098419 L90.5,92.7325116 L107.282512,92.7325116 C112.639209,92.7325116 117,88.374186 117,83.0174884 L117,24.7174884 C117,19.3607907 112.639209,15 107.282512,15 Z"/>
</svg>
